<svg xmlns="http://www.w3.org/2000/svg" width="1300" height="815" viewBox="0 -50 1300 815" font-family="DejaVu Sans, Arial, sans-serif">
<rect x="0" y="-50" width="1300" height="815" fill="#ffffff"/>
<text x="30" y="-24" font-size="18" font-weight="bold" fill="#222">Diagrama 4: Fichas de traslado, ingreso y egreso</text>
<text x="30" y="-6" font-size="11" fill="#666">Hospitales de Occidente · Modelo lógico en notación de Barker</text>
<polyline points="465.2,132.7 562.6,132.7 562.6,164.2" fill="none" stroke="#333" stroke-width="1.3" stroke-dasharray="6 4"/><polyline points="562.6,164.2 562.6,195.8 660.0,195.8" fill="none" stroke="#333" stroke-width="1.3" stroke-dasharray="6 4"/><line x1="479.2" y1="132.7" x2="465.2" y2="124.7" stroke="#333" stroke-width="1.3"/><line x1="479.2" y1="132.7" x2="465.2" y2="132.7" stroke="#333" stroke-width="1.3"/><line x1="479.2" y1="132.7" x2="465.2" y2="140.7" stroke="#333" stroke-width="1.3"/>
<polyline points="465.2,87.9 483.2,87.9 483.2,77.7 557.5,77.7" fill="none" stroke="#333" stroke-width="1.3"/><polyline points="557.5,77.7 660.0,77.7" fill="none" stroke="#333" stroke-width="1.3" stroke-dasharray="6 4"/><line x1="479.2" y1="87.9" x2="465.2" y2="79.9" stroke="#333" stroke-width="1.3"/><line x1="479.2" y1="87.9" x2="465.2" y2="87.9" stroke="#333" stroke-width="1.3"/><line x1="479.2" y1="87.9" x2="465.2" y2="95.9" stroke="#333" stroke-width="1.3"/><text x="571.6" y="72.7" font-size="10" font-style="italic" text-anchor="middle" fill="#444">destino</text>
<polyline points="320.0,115.8 267.9,115.8" fill="none" stroke="#333" stroke-width="1.3" stroke-dasharray="6 4"/><polyline points="267.9,115.8 215.8,115.8" fill="none" stroke="#333" stroke-width="1.3" stroke-dasharray="6 4"/><line x1="306.0" y1="115.8" x2="320.0" y2="123.8" stroke="#333" stroke-width="1.3"/><line x1="306.0" y1="115.8" x2="320.0" y2="115.8" stroke="#333" stroke-width="1.3"/><line x1="306.0" y1="115.8" x2="320.0" y2="107.8" stroke="#333" stroke-width="1.3"/>
<polyline points="320.0,132.7 236.4,132.7 236.4,159.2" fill="none" stroke="#333" stroke-width="1.3"/><polyline points="236.4,159.2 236.4,185.8 152.9,185.8" fill="none" stroke="#333" stroke-width="1.3" stroke-dasharray="6 4"/><line x1="306.0" y1="132.7" x2="320.0" y2="140.7" stroke="#333" stroke-width="1.3"/><line x1="306.0" y1="132.7" x2="320.0" y2="132.7" stroke="#333" stroke-width="1.3"/><line x1="306.0" y1="132.7" x2="320.0" y2="124.7" stroke="#333" stroke-width="1.3"/>
<polyline points="465.2,110.3 497.2,110.3 497.2,99.9 557.4,99.9" fill="none" stroke="#333" stroke-width="1.3"/><polyline points="557.4,99.9 660.0,99.9" fill="none" stroke="#333" stroke-width="1.3" stroke-dasharray="6 4"/><line x1="479.2" y1="110.3" x2="465.2" y2="102.3" stroke="#333" stroke-width="1.3"/><line x1="479.2" y1="110.3" x2="465.2" y2="110.3" stroke="#333" stroke-width="1.3"/><line x1="479.2" y1="110.3" x2="465.2" y2="118.3" stroke="#333" stroke-width="1.3"/><text x="578.6" y="112.9" font-size="10" font-style="italic" text-anchor="middle" fill="#444">origen</text>
<polyline points="320.0,87.9 236.4,87.9 236.4,66.9" fill="none" stroke="#333" stroke-width="1.3"/><polyline points="236.4,66.9 236.4,45.8 152.9,45.8" fill="none" stroke="#333" stroke-width="1.3" stroke-dasharray="6 4"/><line x1="306.0" y1="87.9" x2="320.0" y2="95.9" stroke="#333" stroke-width="1.3"/><line x1="306.0" y1="87.9" x2="320.0" y2="87.9" stroke="#333" stroke-width="1.3"/><line x1="306.0" y1="87.9" x2="320.0" y2="79.9" stroke="#333" stroke-width="1.3"/>
<polyline points="341.4,473.0 341.4,516.5" fill="none" stroke="#333" stroke-width="1.3" stroke-dasharray="6 4"/><polyline points="341.4,516.5 341.4,560.0" fill="none" stroke="#333" stroke-width="1.3" stroke-dasharray="6 4"/><line x1="341.4" y1="487.0" x2="349.4" y2="473.0" stroke="#333" stroke-width="1.3"/><line x1="341.4" y1="487.0" x2="341.4" y2="473.0" stroke="#333" stroke-width="1.3"/><line x1="341.4" y1="487.0" x2="333.4" y2="473.0" stroke="#333" stroke-width="1.3"/>
<polyline points="320.0,395.8 267.9,395.8" fill="none" stroke="#333" stroke-width="1.3" stroke-dasharray="6 4"/><polyline points="267.9,395.8 215.8,395.8" fill="none" stroke="#333" stroke-width="1.3" stroke-dasharray="6 4"/><line x1="306.0" y1="395.8" x2="320.0" y2="403.8" stroke="#333" stroke-width="1.3"/><line x1="306.0" y1="395.8" x2="320.0" y2="395.8" stroke="#333" stroke-width="1.3"/><line x1="306.0" y1="395.8" x2="320.0" y2="387.8" stroke="#333" stroke-width="1.3"/>
<polyline points="320.0,417.2 288.0,417.2 288.0,465.8 260.7,465.8" fill="none" stroke="#333" stroke-width="1.3"/><polyline points="260.7,465.8 152.9,465.8" fill="none" stroke="#333" stroke-width="1.3" stroke-dasharray="6 4"/><line x1="306.0" y1="417.2" x2="320.0" y2="425.2" stroke="#333" stroke-width="1.3"/><line x1="306.0" y1="417.2" x2="320.0" y2="417.2" stroke="#333" stroke-width="1.3"/><line x1="306.0" y1="417.2" x2="320.0" y2="409.2" stroke="#333" stroke-width="1.3"/>
<polyline points="320.0,369.5 251.4,369.5 251.4,332.7" fill="none" stroke="#333" stroke-width="1.3"/><polyline points="251.4,332.7 251.4,325.8 152.9,325.8" fill="none" stroke="#333" stroke-width="1.3" stroke-dasharray="6 4"/><line x1="306.0" y1="369.5" x2="320.0" y2="377.5" stroke="#333" stroke-width="1.3"/><line x1="306.0" y1="369.5" x2="320.0" y2="369.5" stroke="#333" stroke-width="1.3"/><line x1="306.0" y1="369.5" x2="320.0" y2="361.5" stroke="#333" stroke-width="1.3"/>
<polyline points="452.8,473.0 452.8,516.5" fill="none" stroke="#333" stroke-width="1.3" stroke-dasharray="6 4"/><polyline points="452.8,516.5 452.8,560.0" fill="none" stroke="#333" stroke-width="1.3" stroke-dasharray="6 4"/><line x1="452.8" y1="487.0" x2="460.8" y2="473.0" stroke="#333" stroke-width="1.3"/><line x1="452.8" y1="487.0" x2="452.8" y2="473.0" stroke="#333" stroke-width="1.3"/><line x1="452.8" y1="487.0" x2="444.8" y2="473.0" stroke="#333" stroke-width="1.3"/>
<polyline points="392.6,330.0 392.6,246.5" fill="none" stroke="#333" stroke-width="1.3" stroke-dasharray="6 4"/><polyline points="392.6,246.5 392.6,163.0" fill="none" stroke="#333" stroke-width="1.3" stroke-dasharray="6 4"/>
<polyline points="320.0,441.1 302.0,441.1 302.0,535.8 298.7,535.8" fill="none" stroke="#333" stroke-width="1.3"/><polyline points="298.7,535.8 182.8,535.8" fill="none" stroke="#333" stroke-width="1.3" stroke-dasharray="6 4"/><line x1="306.0" y1="441.1" x2="320.0" y2="449.1" stroke="#333" stroke-width="1.3"/><line x1="306.0" y1="441.1" x2="320.0" y2="441.1" stroke="#333" stroke-width="1.3"/><line x1="306.0" y1="441.1" x2="320.0" y2="433.1" stroke="#333" stroke-width="1.3"/>
<polyline points="829.7,345.8 874.9,345.8" fill="none" stroke="#333" stroke-width="1.3" stroke-dasharray="6 4"/><polyline points="874.9,345.8 920.0,345.8" fill="none" stroke="#333" stroke-width="1.3" stroke-dasharray="6 4"/><line x1="843.7" y1="345.8" x2="829.7" y2="337.8" stroke="#333" stroke-width="1.3"/><line x1="843.7" y1="345.8" x2="829.7" y2="345.8" stroke="#333" stroke-width="1.3"/><line x1="843.7" y1="345.8" x2="829.7" y2="353.8" stroke="#333" stroke-width="1.3"/>
<polyline points="640.0,405.3 562.8,405.3" fill="none" stroke="#333" stroke-width="1.3"/><polyline points="562.8,405.3 485.7,405.3" fill="none" stroke="#333" stroke-width="1.3" stroke-dasharray="6 4"/>
<polyline points="829.7,425.8 874.9,425.8" fill="none" stroke="#333" stroke-width="1.3"/><polyline points="874.9,425.8 920.0,425.8" fill="none" stroke="#333" stroke-width="1.3" stroke-dasharray="6 4"/><line x1="843.7" y1="425.8" x2="829.7" y2="417.8" stroke="#333" stroke-width="1.3"/><line x1="843.7" y1="425.8" x2="829.7" y2="425.8" stroke="#333" stroke-width="1.3"/><line x1="843.7" y1="425.8" x2="829.7" y2="433.8" stroke="#333" stroke-width="1.3"/>
<polyline points="734.9,300.0 734.9,231.5 574.2,231.5" fill="none" stroke="#333" stroke-width="1.3" stroke-dasharray="6 4"/><polyline points="574.2,231.5 413.5,231.5 413.5,163.0" fill="none" stroke="#333" stroke-width="1.3" stroke-dasharray="6 4"/>
<polyline points="730.2,560.0 730.2,516.5" fill="none" stroke="#333" stroke-width="1.3"/><polyline points="730.2,516.5 730.2,473.0" fill="none" stroke="#333" stroke-width="1.3" stroke-dasharray="6 4"/><line x1="730.2" y1="546.0" x2="722.2" y2="560.0" stroke="#333" stroke-width="1.3"/><line x1="730.2" y1="546.0" x2="730.2" y2="560.0" stroke="#333" stroke-width="1.3"/><line x1="730.2" y1="546.0" x2="738.2" y2="560.0" stroke="#333" stroke-width="1.3"/><line x1="738.2" y1="540.0" x2="722.2" y2="540.0" stroke="#333" stroke-width="1.8"/>
<g><rect x="40" y="20" width="113" height="44" rx="12" fill="#F5F5F5" stroke="#9E9E9E" stroke-dasharray="5 3" stroke-width="1.3"/><text x="96.4" y="38.0" font-size="12" font-weight="bold" text-anchor="middle" fill="#555">PACIENTE</text><text x="96.4" y="53.0" font-size="10" font-style="italic" text-anchor="middle" fill="#777">(ver diagrama 1)</text></g>
<g><rect x="40" y="90" width="176" height="44" rx="12" fill="#F5F5F5" stroke="#9E9E9E" stroke-dasharray="5 3" stroke-width="1.3"/><text x="127.9" y="108.0" font-size="12" font-weight="bold" text-anchor="middle" fill="#555">PACIENTE_ENCARGADO</text><text x="127.9" y="123.0" font-size="10" font-style="italic" text-anchor="middle" fill="#777">(ver diagrama 1)</text></g>
<g><rect x="40" y="160" width="113" height="44" rx="12" fill="#F5F5F5" stroke="#9E9E9E" stroke-dasharray="5 3" stroke-width="1.3"/><text x="96.4" y="178.0" font-size="12" font-weight="bold" text-anchor="middle" fill="#555">MEDICO</text><text x="96.4" y="193.0" font-size="10" font-style="italic" text-anchor="middle" fill="#777">(ver diagrama 1)</text></g>
<g><rect x="320" y="50" width="145" height="113" rx="14" fill="#FCE4EC" stroke="#AD1457" stroke-width="1.6"/><text x="392.6" y="67" font-size="12" font-weight="bold" text-anchor="middle" fill="#111">FICHA_TRASLADO</text><line x1="328" y1="74" x2="457" y2="74" stroke="#AD1457" stroke-width="0.7"/><text x="330" y="93" font-size="11" font-weight="bold" fill="#111"><tspan fill="#AD1457">#</tspan>  id_traslado</text><text x="330" y="108" font-size="11" fill="#111"><tspan fill="#AD1457">*</tspan>  fecha_hora</text><text x="330" y="123" font-size="11" fill="#111"><tspan fill="#AD1457">*</tspan>  edad_anios</text><text x="330" y="138" font-size="11" fill="#111"><tspan fill="#AD1457">*</tspan>  motivo</text><text x="330" y="153" font-size="11" fill="#111"><tspan fill="#AD1457">*</tspan>  consentimiento_de</text></g>
<g><rect x="660" y="40" width="143" height="90" rx="12" fill="#F5F5F5" stroke="#9E9E9E" stroke-dasharray="5 3" stroke-width="1.3"/><text x="731.4" y="81.0" font-size="12" font-weight="bold" text-anchor="middle" fill="#555">UNIDAD_SERVICIO</text><text x="731.4" y="96.0" font-size="10" font-style="italic" text-anchor="middle" fill="#777">(ver diagrama 2)</text></g>
<g><rect x="660" y="170" width="113" height="44" rx="12" fill="#F5F5F5" stroke="#9E9E9E" stroke-dasharray="5 3" stroke-width="1.3"/><text x="716.4" y="188.0" font-size="12" font-weight="bold" text-anchor="middle" fill="#555">CONSULTA</text><text x="716.4" y="203.0" font-size="10" font-style="italic" text-anchor="middle" fill="#777">(ver diagrama 3)</text></g>
<g><rect x="320" y="330" width="166" height="143" rx="14" fill="#FCE4EC" stroke="#AD1457" stroke-width="1.6"/><text x="402.8" y="347" font-size="12" font-weight="bold" text-anchor="middle" fill="#111">FICHA_INGRESO</text><line x1="328" y1="354" x2="478" y2="354" stroke="#AD1457" stroke-width="0.7"/><text x="330" y="373" font-size="11" font-weight="bold" fill="#111"><tspan fill="#AD1457">#</tspan>  id_ingreso</text><text x="330" y="388" font-size="11" fill="#111"><tspan fill="#AD1457">*</tspan>  edad_anios</text><text x="330" y="403" font-size="11" fill="#111"><tspan fill="#AD1457">*</tspan>  fecha_hora</text><text x="330" y="418" font-size="11" fill="#111"><tspan fill="#AD1457">*</tspan>  motivo_ingreso</text><text x="330" y="433" font-size="11" fill="#111"><tspan fill="#AD1457">*</tspan>  diagnostico_presuntivo</text><text x="330" y="448" font-size="11" fill="#111"><tspan fill="#AD1457">o</tspan>  estado_actual</text><text x="330" y="463" font-size="11" fill="#111"><tspan fill="#AD1457">o</tspan>  prioridad</text></g>
<g><rect x="40" y="300" width="113" height="44" rx="12" fill="#F5F5F5" stroke="#9E9E9E" stroke-dasharray="5 3" stroke-width="1.3"/><text x="96.4" y="318.0" font-size="12" font-weight="bold" text-anchor="middle" fill="#555">PACIENTE</text><text x="96.4" y="333.0" font-size="10" font-style="italic" text-anchor="middle" fill="#777">(ver diagrama 1)</text></g>
<g><rect x="40" y="370" width="176" height="44" rx="12" fill="#F5F5F5" stroke="#9E9E9E" stroke-dasharray="5 3" stroke-width="1.3"/><text x="127.9" y="388.0" font-size="12" font-weight="bold" text-anchor="middle" fill="#555">PACIENTE_ENCARGADO</text><text x="127.9" y="403.0" font-size="10" font-style="italic" text-anchor="middle" fill="#777">(ver diagrama 1)</text></g>
<g><rect x="40" y="440" width="113" height="44" rx="12" fill="#F5F5F5" stroke="#9E9E9E" stroke-dasharray="5 3" stroke-width="1.3"/><text x="96.4" y="458.0" font-size="12" font-weight="bold" text-anchor="middle" fill="#555">MEDICO</text><text x="96.4" y="473.0" font-size="10" font-style="italic" text-anchor="middle" fill="#777">(ver diagrama 1)</text></g>
<g><rect x="40" y="510" width="143" height="44" rx="12" fill="#F5F5F5" stroke="#9E9E9E" stroke-dasharray="5 3" stroke-width="1.3"/><text x="111.4" y="528.0" font-size="12" font-weight="bold" text-anchor="middle" fill="#555">UNIDAD_SERVICIO</text><text x="111.4" y="543.0" font-size="10" font-style="italic" text-anchor="middle" fill="#777">(ver diagrama 2)</text></g>
<g><rect x="250" y="560" width="113" height="44" rx="12" fill="#F5F5F5" stroke="#9E9E9E" stroke-dasharray="5 3" stroke-width="1.3"/><text x="306.4" y="578.0" font-size="12" font-weight="bold" text-anchor="middle" fill="#555">CAMILLA</text><text x="306.4" y="593.0" font-size="10" font-style="italic" text-anchor="middle" fill="#777">(ver diagrama 2)</text></g>
<g><rect x="420" y="560" width="113" height="44" rx="12" fill="#F5F5F5" stroke="#9E9E9E" stroke-dasharray="5 3" stroke-width="1.3"/><text x="476.4" y="578.0" font-size="12" font-weight="bold" text-anchor="middle" fill="#555">QUIROFANO</text><text x="476.4" y="593.0" font-size="10" font-style="italic" text-anchor="middle" fill="#777">(ver diagrama 2)</text></g>
<g><rect x="640" y="300" width="190" height="173" rx="14" fill="#FCE4EC" stroke="#AD1457" stroke-width="1.6"/><text x="734.9" y="317" font-size="12" font-weight="bold" text-anchor="middle" fill="#111">FICHA_EGRESO</text><line x1="648" y1="324" x2="822" y2="324" stroke="#AD1457" stroke-width="0.7"/><text x="650" y="343" font-size="11" font-weight="bold" fill="#111"><tspan fill="#AD1457">#</tspan>  id_egreso</text><text x="650" y="358" font-size="11" fill="#111"><tspan fill="#AD1457">*</tspan>  fecha_hora</text><text x="650" y="373" font-size="11" fill="#111"><tspan fill="#AD1457">*</tspan>  edad_anios</text><text x="650" y="388" font-size="11" fill="#111"><tspan fill="#AD1457">*</tspan>  diagnostico_principal</text><text x="650" y="403" font-size="11" fill="#111"><tspan fill="#AD1457">*</tspan>  motivo_egreso</text><text x="650" y="418" font-size="11" fill="#111"><tspan fill="#AD1457">*</tspan>  codigo_egreso</text><text x="650" y="433" font-size="11" fill="#111"><tspan fill="#AD1457">*</tspan>  sin_consentimiento</text><text x="650" y="448" font-size="11" fill="#111"><tspan fill="#AD1457">o</tspan>  motivo_sin_consentimiento</text><text x="650" y="463" font-size="11" fill="#111"><tspan fill="#AD1457">o</tspan>  dias_hospitalizado</text></g>
<g><rect x="920" y="320" width="113" height="44" rx="12" fill="#F5F5F5" stroke="#9E9E9E" stroke-dasharray="5 3" stroke-width="1.3"/><text x="976.4" y="338.0" font-size="12" font-weight="bold" text-anchor="middle" fill="#555">HOSPITAL</text><text x="976.4" y="353.0" font-size="10" font-style="italic" text-anchor="middle" fill="#777">(ver diagrama 2)</text></g>
<g><rect x="920" y="400" width="113" height="44" rx="12" fill="#F5F5F5" stroke="#9E9E9E" stroke-dasharray="5 3" stroke-width="1.3"/><text x="976.4" y="418.0" font-size="12" font-weight="bold" text-anchor="middle" fill="#555">MEDICO</text><text x="976.4" y="433.0" font-size="10" font-style="italic" text-anchor="middle" fill="#777">(ver diagrama 1)</text></g>
<g><rect x="640" y="560" width="180" height="68" rx="14" fill="#FCE4EC" stroke="#AD1457" stroke-width="1.6"/><text x="730.2" y="577" font-size="12" font-weight="bold" text-anchor="middle" fill="#111">EGRESO_DIAGNOSTICO</text><line x1="648" y1="584" x2="812" y2="584" stroke="#AD1457" stroke-width="0.7"/><text x="650" y="603" font-size="11" font-weight="bold" fill="#111"><tspan fill="#AD1457">#</tspan>  numero</text><text x="650" y="618" font-size="11" fill="#111"><tspan fill="#AD1457">*</tspan>  descripcion</text></g>
<g font-size="10.5" fill="#222"><rect x="880" y="540" width="380" height="185" rx="6" fill="#FAFAFA" stroke="#BDBDBD"/><text x="890" y="557" font-weight="bold" font-size="11.5">Notación de Barker</text><text x="890" y="575"><tspan font-weight="bold">#</tspan>  identificador único (UID)</text><text x="890" y="590"><tspan font-weight="bold">*</tspan>  atributo obligatorio     <tspan font-weight="bold">o</tspan>  atributo opcional</text><line x1="892" y1="608" x2="942" y2="608" stroke="#333" stroke-width="1.3"/><text x="952" y="612">línea continua: "debe" (participación obligatoria)</text><line x1="892" y1="626" x2="942" y2="626" stroke="#333" stroke-width="1.3" stroke-dasharray="6 4"/><text x="952" y="630">línea discontinua: "puede" (participación opcional)</text><line x1="906" y1="646" x2="942" y2="646" stroke="#333" stroke-width="1.3"/><line x1="906" y1="646" x2="892" y2="639" stroke="#333" stroke-width="1.3"/><line x1="906" y1="646" x2="892" y2="646" stroke="#333" stroke-width="1.3"/><line x1="906" y1="646" x2="892" y2="653" stroke="#333" stroke-width="1.3"/><text x="952" y="650">pata de gallo: extremo "muchos"</text><line x1="892" y1="666" x2="942" y2="666" stroke="#333" stroke-width="1.3"/><line x1="912" y1="658" x2="912" y2="674" stroke="#333" stroke-width="1.8"/><text x="952" y="670">barra: relación que forma parte del UID</text><rect x="892" y="678" width="50" height="16" rx="6" fill="#F5F5F5" stroke="#9E9E9E" stroke-dasharray="4 2"/><text x="952" y="690">entidad definida en otro diagrama</text><text x="890" y="709" font-style="italic" fill="#555">Las llaves foráneas no se listan como atributos:</text><text x="890" y="722" font-style="italic" fill="#555">las representan las relaciones.</text></g>
</svg>