<svg xmlns="http://www.w3.org/2000/svg" width="1020" height="758" viewBox="0 -50 1020 758" font-family="DejaVu Sans, Arial, sans-serif">
<rect x="0" y="-50" width="1020" height="758" fill="#ffffff"/>
<text x="30" y="-24" font-size="18" font-weight="bold" fill="#222">Diagrama 1: Personas, pacientes, personal médico y ubicación</text>
<text x="30" y="-6" font-size="11" fill="#666">Hospitales de Occidente · Modelo lógico en notación de Barker</text>
<polyline points="100.2,190.0 100.2,149.0" fill="none" stroke="#333" stroke-width="1.3"/><polyline points="100.2,149.0 100.2,108.0" fill="none" stroke="#333" stroke-width="1.3" stroke-dasharray="6 4"/><line x1="100.2" y1="176.0" x2="92.2" y2="190.0" stroke="#333" stroke-width="1.3"/><line x1="100.2" y1="176.0" x2="100.2" y2="190.0" stroke="#333" stroke-width="1.3"/><line x1="100.2" y1="176.0" x2="108.2" y2="190.0" stroke="#333" stroke-width="1.3"/>
<polyline points="300.0,227.8 230.2,227.8" fill="none" stroke="#333" stroke-width="1.3"/><polyline points="230.2,227.8 160.4,227.8" fill="none" stroke="#333" stroke-width="1.3" stroke-dasharray="6 4"/><line x1="286.0" y1="227.8" x2="300.0" y2="235.8" stroke="#333" stroke-width="1.3"/><line x1="286.0" y1="227.8" x2="300.0" y2="227.8" stroke="#333" stroke-width="1.3"/><line x1="286.0" y1="227.8" x2="300.0" y2="219.8" stroke="#333" stroke-width="1.3"/>
<polyline points="600.0,85.3 453.8,85.3 453.8,88.7" fill="none" stroke="#333" stroke-width="1.3"/><polyline points="453.8,88.7 453.8,220.4 435.8,220.4" fill="none" stroke="#333" stroke-width="1.3" stroke-dasharray="6 4"/><line x1="580.0" y1="77.3" x2="580.0" y2="93.3" stroke="#333" stroke-width="1.8"/>
<polyline points="666.6,200.0 666.6,161.5" fill="none" stroke="#333" stroke-width="1.3"/><polyline points="666.6,161.5 666.6,123.0" fill="none" stroke="#333" stroke-width="1.3" stroke-dasharray="6 4"/><line x1="666.6" y1="186.0" x2="658.6" y2="200.0" stroke="#333" stroke-width="1.3"/><line x1="666.6" y1="186.0" x2="666.6" y2="200.0" stroke="#333" stroke-width="1.3"/><line x1="666.6" y1="186.0" x2="674.6" y2="200.0" stroke="#333" stroke-width="1.3"/><line x1="674.6" y1="180.0" x2="658.6" y2="180.0" stroke="#333" stroke-width="1.8"/>
<polyline points="600.0,230.3 495.4,230.3" fill="none" stroke="#333" stroke-width="1.3"/><polyline points="495.4,230.3 467.8,230.3 467.8,275.2 435.8,275.2" fill="none" stroke="#333" stroke-width="1.3" stroke-dasharray="6 4"/><line x1="586.0" y1="230.3" x2="600.0" y2="238.3" stroke="#333" stroke-width="1.3"/><line x1="586.0" y1="230.3" x2="600.0" y2="230.3" stroke="#333" stroke-width="1.3"/><line x1="586.0" y1="230.3" x2="600.0" y2="222.3" stroke="#333" stroke-width="1.3"/><line x1="580.0" y1="222.3" x2="580.0" y2="238.3" stroke="#333" stroke-width="1.8"/>
<polyline points="162.3,437.8 231.1,437.8 231.1,356.5" fill="none" stroke="#333" stroke-width="1.3"/><polyline points="231.1,356.5 231.1,275.2 300.0,275.2" fill="none" stroke="#333" stroke-width="1.3" stroke-dasharray="6 4"/><line x1="182.3" y1="445.8" x2="182.3" y2="429.8" stroke="#333" stroke-width="1.8"/>
<polyline points="367.9,420.0 367.9,379.0" fill="none" stroke="#333" stroke-width="1.3"/><polyline points="367.9,379.0 367.9,338.0" fill="none" stroke="#333" stroke-width="1.3" stroke-dasharray="6 4"/><line x1="375.9" y1="400.0" x2="359.9" y2="400.0" stroke="#333" stroke-width="1.8"/>
<polyline points="483.3,620.3 541.7,620.3 541.7,629.0" fill="none" stroke="#333" stroke-width="1.3"/><polyline points="541.7,629.0 541.7,637.8 600.0,637.8" fill="none" stroke="#333" stroke-width="1.3" stroke-dasharray="6 4"/><line x1="497.3" y1="620.3" x2="483.3" y2="612.3" stroke="#333" stroke-width="1.3"/><line x1="497.3" y1="620.3" x2="483.3" y2="620.3" stroke="#333" stroke-width="1.3"/><line x1="497.3" y1="620.3" x2="483.3" y2="628.3" stroke="#333" stroke-width="1.3"/><line x1="503.3" y1="628.3" x2="503.3" y2="612.3" stroke="#333" stroke-width="1.8"/>
<polyline points="368.8,590.0 368.8,554.0" fill="none" stroke="#333" stroke-width="1.3"/><polyline points="368.8,554.0 368.8,518.0" fill="none" stroke="#333" stroke-width="1.3" stroke-dasharray="6 4"/><line x1="368.8" y1="576.0" x2="360.8" y2="590.0" stroke="#333" stroke-width="1.3"/><line x1="368.8" y1="576.0" x2="368.8" y2="590.0" stroke="#333" stroke-width="1.3"/><line x1="368.8" y1="576.0" x2="376.8" y2="590.0" stroke="#333" stroke-width="1.3"/><line x1="376.8" y1="570.0" x2="360.8" y2="570.0" stroke="#333" stroke-width="1.8"/>
<g><rect x="40" y="40" width="148" height="68" rx="14" fill="#FFF8E1" stroke="#B28704" stroke-width="1.6"/><text x="114.2" y="57" font-size="12" font-weight="bold" text-anchor="middle" fill="#111">DEPARTAMENTO</text><line x1="48" y1="64" x2="180" y2="64" stroke="#B28704" stroke-width="0.7"/><text x="50" y="83" font-size="11" font-weight="bold" fill="#111"><tspan fill="#B28704">#</tspan>  id_departamento</text><text x="50" y="98" font-size="11" fill="#111"><tspan fill="#B28704">*</tspan>  nombre</text></g>
<g><rect x="40" y="190" width="120" height="68" rx="14" fill="#FFF8E1" stroke="#B28704" stroke-width="1.6"/><text x="100.2" y="207" font-size="12" font-weight="bold" text-anchor="middle" fill="#111">MUNICIPIO</text><line x1="48" y1="214" x2="152" y2="214" stroke="#B28704" stroke-width="0.7"/><text x="50" y="233" font-size="11" font-weight="bold" fill="#111"><tspan fill="#B28704">#</tspan>  id_municipio</text><text x="50" y="248" font-size="11" fill="#111"><tspan fill="#B28704">*</tspan>  nombre</text></g>
<g><rect x="300" y="150" width="136" height="188" rx="14" fill="#FFF8E1" stroke="#B28704" stroke-width="1.6"/><text x="367.9" y="167" font-size="12" font-weight="bold" text-anchor="middle" fill="#111">PERSONA</text><line x1="308" y1="174" x2="428" y2="174" stroke="#B28704" stroke-width="0.7"/><text x="310" y="193" font-size="11" font-weight="bold" fill="#111"><tspan fill="#B28704">#</tspan>  id_persona</text><text x="310" y="208" font-size="11" fill="#111"><tspan fill="#B28704">*</tspan>  nombres</text><text x="310" y="223" font-size="11" fill="#111"><tspan fill="#B28704">*</tspan>  apellidos</text><text x="310" y="238" font-size="11" fill="#111"><tspan fill="#B28704">o</tspan>  dpi</text><text x="310" y="253" font-size="11" fill="#111"><tspan fill="#B28704">*</tspan>  fecha_nacimiento</text><text x="310" y="268" font-size="11" fill="#111"><tspan fill="#B28704">*</tspan>  sexo</text><text x="310" y="283" font-size="11" fill="#111"><tspan fill="#B28704">o</tspan>  estado_civil</text><text x="310" y="298" font-size="11" fill="#111"><tspan fill="#B28704">o</tspan>  telefono</text><text x="310" y="313" font-size="11" fill="#111"><tspan fill="#B28704">o</tspan>  direccion</text><text x="310" y="328" font-size="11" fill="#111"><tspan fill="#B28704">*</tspan>  area</text></g>
<g><rect x="600" y="40" width="133" height="83" rx="14" fill="#FFF8E1" stroke="#B28704" stroke-width="1.6"/><text x="666.6" y="57" font-size="12" font-weight="bold" text-anchor="middle" fill="#111">PACIENTE</text><line x1="608" y1="64" x2="725" y2="64" stroke="#B28704" stroke-width="0.7"/><text x="610" y="83" font-size="11" fill="#111"><tspan fill="#B28704">*</tspan>  no_expediente</text><text x="610" y="98" font-size="11" fill="#111"><tspan fill="#B28704">o</tspan>  no_seguro_social</text><text x="610" y="113" font-size="11" fill="#111"><tspan fill="#B28704">*</tspan>  fecha_registro</text></g>
<g><rect x="600" y="200" width="182" height="53" rx="14" fill="#FFF8E1" stroke="#B28704" stroke-width="1.6"/><text x="690.9" y="217" font-size="12" font-weight="bold" text-anchor="middle" fill="#111">PACIENTE_ENCARGADO</text><line x1="608" y1="224" x2="774" y2="224" stroke="#B28704" stroke-width="0.7"/><text x="610" y="243" font-size="11" fill="#111"><tspan fill="#B28704">*</tspan>  parentesco</text></g>
<g><rect x="40" y="400" width="122" height="68" rx="14" fill="#FFF8E1" stroke="#B28704" stroke-width="1.6"/><text x="101.1" y="417" font-size="12" font-weight="bold" text-anchor="middle" fill="#111">ENFERMERO</text><line x1="48" y1="424" x2="154" y2="424" stroke="#B28704" stroke-width="0.7"/><text x="50" y="443" font-size="11" fill="#111"><tspan fill="#B28704">o</tspan>  no_registro</text><text x="50" y="458" font-size="11" fill="#111"><tspan fill="#B28704">*</tspan>  tipo_enfermero</text></g>
<g><rect x="300" y="420" width="138" height="98" rx="14" fill="#FFF8E1" stroke="#B28704" stroke-width="1.6"/><text x="368.8" y="437" font-size="12" font-weight="bold" text-anchor="middle" fill="#111">MEDICO</text><line x1="308" y1="444" x2="430" y2="444" stroke="#B28704" stroke-width="0.7"/><text x="310" y="463" font-size="11" fill="#111"><tspan fill="#B28704">o</tspan>  no_colegiado</text><text x="310" y="478" font-size="11" fill="#111"><tspan fill="#B28704">*</tspan>  tipo_medico</text><text x="310" y="493" font-size="11" fill="#111"><tspan fill="#B28704">o</tspan>  institucion_origen</text><text x="310" y="508" font-size="11" fill="#111"><tspan fill="#B28704">o</tspan>  costo_consulta</text></g>
<g><rect x="300" y="590" width="183" height="53" rx="14" fill="#FFF8E1" stroke="#B28704" stroke-width="1.6"/><text x="391.7" y="607" font-size="12" font-weight="bold" text-anchor="middle" fill="#111">MEDICO_ESPECIALIDAD</text><line x1="308" y1="614" x2="475" y2="614" stroke="#B28704" stroke-width="0.7"/><text x="310" y="632" font-size="10" font-style="italic" fill="#666">(UID = relaciones)</text></g>
<g><rect x="600" y="600" width="138" height="68" rx="14" fill="#FFF8E1" stroke="#B28704" stroke-width="1.6"/><text x="668.9" y="617" font-size="12" font-weight="bold" text-anchor="middle" fill="#111">ESPECIALIDAD</text><line x1="608" y1="624" x2="730" y2="624" stroke="#B28704" stroke-width="0.7"/><text x="610" y="643" font-size="11" font-weight="bold" fill="#111"><tspan fill="#B28704">#</tspan>  id_especialidad</text><text x="610" y="658" font-size="11" fill="#111"><tspan fill="#B28704">*</tspan>  nombre</text></g>
<g font-size="10.5" fill="#222"><rect x="600" y="330" width="380" height="185" rx="6" fill="#FAFAFA" stroke="#BDBDBD"/><text x="610" y="347" font-weight="bold" font-size="11.5">Notación de Barker</text><text x="610" y="365"><tspan font-weight="bold">#</tspan>  identificador único (UID)</text><text x="610" y="380"><tspan font-weight="bold">*</tspan>  atributo obligatorio     <tspan font-weight="bold">o</tspan>  atributo opcional</text><line x1="612" y1="398" x2="662" y2="398" stroke="#333" stroke-width="1.3"/><text x="672" y="402">línea continua: "debe" (participación obligatoria)</text><line x1="612" y1="416" x2="662" y2="416" stroke="#333" stroke-width="1.3" stroke-dasharray="6 4"/><text x="672" y="420">línea discontinua: "puede" (participación opcional)</text><line x1="626" y1="436" x2="662" y2="436" stroke="#333" stroke-width="1.3"/><line x1="626" y1="436" x2="612" y2="429" stroke="#333" stroke-width="1.3"/><line x1="626" y1="436" x2="612" y2="436" stroke="#333" stroke-width="1.3"/><line x1="626" y1="436" x2="612" y2="443" stroke="#333" stroke-width="1.3"/><text x="672" y="440">pata de gallo: extremo "muchos"</text><line x1="612" y1="456" x2="662" y2="456" stroke="#333" stroke-width="1.3"/><line x1="632" y1="448" x2="632" y2="464" stroke="#333" stroke-width="1.8"/><text x="672" y="460">barra: relación que forma parte del UID</text><rect x="612" y="468" width="50" height="16" rx="6" fill="#F5F5F5" stroke="#9E9E9E" stroke-dasharray="4 2"/><text x="672" y="480">entidad definida en otro diagrama</text><text x="610" y="499" font-style="italic" fill="#555">Las llaves foráneas no se listan como atributos:</text><text x="610" y="512" font-style="italic" fill="#555">las representan las relaciones.</text></g>
</svg>